<?xml version="1.0" standalone="no"?><!DOCTYPE svg PUBLIC "-//W3C//DTD SVG 1.1//EN" "http://www.w3.org/Graphics/SVG/1.1/DTD/svg11.dtd"><svg t="1715310068402" class="icon" viewBox="0 0 1024 1024" version="1.1" xmlns="http://www.w3.org/2000/svg" p-id="23707" xmlns:xlink="http://www.w3.org/1999/xlink" width="256" height="256"><path d="M469.333333 768h85.333334v-85.333333h-85.333334v85.333333m42.666667-682.666667A426.666667 426.666667 0 0 0 85.333333 512a426.666667 426.666667 0 0 0 426.666667 426.666667 426.666667 426.666667 0 0 0 426.666667-426.666667A426.666667 426.666667 0 0 0 512 85.333333m0 768c-188.16 0-341.333333-153.173333-341.333333-341.333333s153.173333-341.333333 341.333333-341.333333 341.333333 153.173333 341.333333 341.333333-153.173333 341.333333-341.333333 341.333333m0-597.333333a170.666667 170.666667 0 0 0-170.666667 170.666667h85.333334a85.333333 85.333333 0 0 1 85.333333-85.333334 85.333333 85.333333 0 0 1 85.333333 85.333334c0 85.333333-128 74.666667-128 213.333333h85.333334c0-96 128-106.666667 128-213.333333a170.666667 170.666667 0 0 0-170.666667-170.666667z" fill="#e6e6e6" p-id="23708"></path></svg>