<?xml version="1.0" standalone="no"?><!DOCTYPE svg PUBLIC "-//W3C//DTD SVG 1.1//EN" "http://www.w3.org/Graphics/SVG/1.1/DTD/svg11.dtd"><svg t="1761632191753" class="icon" viewBox="0 0 1024 1024" version="1.1" xmlns="http://www.w3.org/2000/svg" p-id="10438" id="mx_n_1761632191755" width="512" height="512" xmlns:xlink="http://www.w3.org/1999/xlink"><path d="M896 928H128V128h800v768a32 32 0 0 1-32 32z" fill="#FFFFFF" p-id="10439"></path><path d="M128 128h256v256H128z" fill="#30AD98" fill-opacity=".5" p-id="10440"></path><path d="M640 128h256v256h-256z" fill="#FFFFFF" p-id="10441"></path><path d="M128 672h224v224H128z" fill="#CFD7E0" p-id="10442"></path><path d="M128 384h224v256H128zM384 128h256v224h-256z" fill="#27A2DF" fill-opacity=".5" p-id="10443"></path><path d="M672 912h32v16h-32zM912 670.656h16v32h-16z" fill="#5D6D7E" p-id="10444"></path><path d="M448 448v480h446.496c18.496 0 33.504-15.008 33.504-33.504V448H448z m32 32h192v192h-192v-192z m0 416v-192h192v192h-192z m416-1.504a1.504 1.504 0 0 1-1.504 1.504H704v-192h192v190.496zM704 672v-192h192v192h-192z" fill="#5D6D7E" p-id="10445"></path><path d="M480 480h192v192h-192z" fill="#30AD98" fill-opacity=".5" p-id="10446"></path><path d="M480 704h192v192h-192zM704 480h192v192h-192z" fill="#27A2DF" fill-opacity=".5" p-id="10447"></path><path d="M704 704h192v192h-192z" fill="#CFD7E0" p-id="10448"></path><path d="M896 96H128a32 32 0 0 0-32 32v768a32 32 0 0 0 32 32h256v-256h32v-32h-32v-256h256v32h32v-32h256V128a32 32 0 0 0-32-32zM352 896H128v-224h224v224z m0-256H128v-256h224v256z m0-288H128V128h224v224z m288 0h-256V128h256v224z m256 0h-224V128h224v224z" fill="#808FA1" p-id="10449"></path></svg>